<?xml version="1.0" encoding="utf-8"?>
<svg width="1056" height="852" viewBox="0 0 1056 852" style="fill:none;stroke:none;fill-rule:evenodd;clip-rule:evenodd;stroke-linecap:round;stroke-linejoin:round;stroke-miterlimit:1.5;" version="1.1" xmlns="http://www.w3.org/2000/svg">
  <style class="text-font-style fontImports" data-font-family="Roboto">@import url('https://fonts.googleapis.com/css2?family=Roboto:wght@400;700&amp;display=block');</style>
  <g id="items" style="isolation: isolate">
    <g id="blend" style="mix-blend-mode: normal">
      <g id="g-root-cp_2_g-2_qwjjstqeswst-fill" data-item-order="-743892" transform="translate(314, 434.00048828125)"/>
      <g id="g-root-cp_3_g-3_mgq1odqesxl4-fill" data-item-order="-743886" transform="translate(506, 350.00048828125)"/>
      <g id="g-root-cp_4_g-4_8vwf0dqeuakr-fill" data-item-order="-743880" transform="translate(682.3754272460938, 266.0009765625)"/>
      <g id="g-root-cp_1_g-1_4g2wvxqeubd2-fill" data-item-order="-743874" transform="translate(108.76701354980469, 518.00048828125)"/>
      <g id="g-root-cp_5_g-5_1q6cxktqeu9l5-fill" data-item-order="-743868" transform="translate(794.5, 182.0009765625)"/>
      <g id="g-root-tx__1cwrugtqeua6e-fill" data-item-order="0" transform="translate(914, 110)">
        <g id="tx__1cwrugtqeua6e-fill" stroke="none" fill="#e0cb15">
          <g>
            <text style="font: bold 20px Roboto, sans-serif; white-space: pre;" font-weight="bold" font-size="20px" font-family="Roboto, sans-serif"><tspan x="12.73" y="34" dominant-baseline="ideographic">التوظيف</tspan></text>
          </g>
        </g>
      </g>
      <g id="g-root-tx__zlbc3hqeubrb-fill" data-item-order="0" transform="translate(806, 146)">
        <g id="tx__zlbc3hqeubrb-fill" stroke="none" fill="#484848">
          <g>
            <text style="font: 15px Roboto, sans-serif; white-space: pre;" font-size="15px" font-family="Roboto, sans-serif"><tspan x="12.43" y="30.6" dominant-baseline="ideographic">ملء الشواغر بالمرشحين المناسبين</tspan></text>
          </g>
        </g>
      </g>
      <g id="g-root-tx__v48vstqeuadg-fill" data-item-order="0" transform="translate(602, 182)">
        <g id="tx__v48vstqeuadg-fill" stroke="none" fill="#1eabda">
          <g>
            <text style="font: bold 20px Roboto, sans-serif; white-space: pre;" font-weight="bold" font-size="20px" font-family="Roboto, sans-serif"><tspan x="14.22" y="34" dominant-baseline="ideographic">استقبال الطلبات والمقابلات</tspan></text>
          </g>
        </g>
      </g>
      <g id="g-root-tx__hssdfhqeubyd-fill" data-item-order="0" transform="translate(614, 218)">
        <g id="tx__hssdfhqeubyd-fill" stroke="none" fill="#484848">
          <g>
            <text style="font: 15px Roboto, sans-serif; white-space: pre;" font-size="15px" font-family="Roboto, sans-serif"><tspan x="16.85" y="27.6" dominant-baseline="ideographic">استقبال طلبات المتقدمين واجراء </tspan><tspan x="47.71" y="45.6" dominant-baseline="ideographic">المقابلات للمتقدمين</tspan></text>
          </g>
        </g>
      </g>
      <g id="g-root-tx__mahat9qeua6g-fill" data-item-order="0" transform="translate(482, 254)">
        <g id="tx__mahat9qeua6g-fill" stroke="none" fill="#507fcc">
          <g>
            <text style="font: bold 20px Roboto, sans-serif; white-space: pre;" font-weight="bold" font-size="20px" font-family="Roboto, sans-serif"><tspan x="16.5" y="34" dominant-baseline="ideographic">إنشاء الشواغر</tspan></text>
          </g>
        </g>
      </g>
      <g id="g-root-tx__18lxp26pkzqit-fill" data-item-order="0" transform="translate(398, 290)">
        <g id="tx__18lxp26pkzqit-fill" stroke="none" fill="#484848">
          <g>
            <text style="font: 20px Roboto, sans-serif; white-space: pre;" font-size="20px" font-family="Roboto, sans-serif"><tspan x="17.55" y="34" dominant-baseline="ideographic">إنشاء ونشر الوظيفة الشاغرة</tspan></text>
          </g>
        </g>
      </g>
      <g id="g-root-tx__1q9hb0dqeuarm-fill" data-item-order="0" transform="translate(266, 350)">
        <g id="tx__1q9hb0dqeuarm-fill" stroke="none" fill="#3cc583">
          <g>
            <text style="font: bold 20px Roboto, sans-serif; white-space: pre;" font-weight="bold" font-size="20px" font-family="Roboto, sans-serif"><tspan x="13.36" y="34" dominant-baseline="ideographic">الموافقة على الطلب</tspan></text>
          </g>
        </g>
      </g>
      <g id="g-root-tx__1cyn9q5qeu96r-fill" data-item-order="0" transform="translate(242, 386)">
        <g id="tx__1cyn9q5qeu96r-fill" stroke="none" fill="#484848">
          <g>
            <text style="font: 15px Roboto, sans-serif; white-space: pre;" font-size="15px" font-family="Roboto, sans-serif"><tspan x="14.1" y="27.6" dominant-baseline="ideographic">مراجعة واعتماد الطلب من قبل </tspan><tspan x="20.7" y="45.6" dominant-baseline="ideographic">أصحاب المصلحة الرئيسيين</tspan></text>
          </g>
        </g>
      </g>
      <g id="g-root-tx__qrjr3xqeubkc-fill" data-item-order="0" transform="translate(110, 434)">
        <g id="tx__qrjr3xqeubkc-fill" stroke="none" fill="#4e88e7">
          <g>
            <text style="font: bold 20px Roboto, sans-serif; white-space: pre;" font-weight="bold" font-size="20px" font-family="Roboto, sans-serif"><tspan x="14.17" y="34" dominant-baseline="ideographic">طلب التوظيف</tspan></text>
          </g>
        </g>
      </g>
      <g id="g-root-tx__mccq2lqeu96t-fill" data-item-order="0" transform="translate(26, 470)">
        <g id="tx__mccq2lqeu96t-fill" stroke="none" fill="#484848">
          <g>
            <text style="font: 15px Roboto, sans-serif; white-space: pre;" font-size="15px" font-family="Roboto, sans-serif"><tspan x="17.01" y="27.6" dominant-baseline="ideographic">تحديد الحاجة للموظف وإنشاء طلب </tspan><tspan x="83.97" y="45.6" dominant-baseline="ideographic">رسمي</tspan></text>
          </g>
        </g>
      </g>
      <g id="g-root-cp_2_g-2_qwjjstqeswst-stroke" data-item-order="-743892" transform="translate(314, 434.00048828125)">
        <g id="cp_2_g-2_qwjjstqeswst-stroke" fill="none" stroke-linecap="round" stroke-linejoin="round" stroke-miterlimit="4" stroke="#3cc583" stroke-width="2">
          <g>
            <path d="M 209.999338 108.232522C 204.894038 116.741422 194.900538 137.372022 189.751138 147.816822C 189.453238 148.420922 189.833938 149.131722 190.499838 149.232422L 269.226738 161.011022C 270.300038 161.173322 270.977438 159.526222 270.194937 158.773922C 265.118238 153.893422 263.140438 147.476322 261.499338 141.732422C 259.499338 134.732422 258.999338 122.247122 258.999338 113.732422C 258.999338 102.732422 258.999338 92.732422 251.499338 84.732522C 245.999338 77.232522 235.999338 78.232322 228.999338 83.732422C 223.873238 87.760222 215.999338 98.232422 209.999338 108.232522Z"/>
          </g>
        </g>
        <g id="cp_2_g-2_qwjjstqeswst-stroke" fill="none" stroke-linecap="round" stroke-linejoin="round" stroke-miterlimit="4" stroke="#3cc583" stroke-width="2">
          <g>
            <path d="M 77 74.732559C 67.5 86.232659 38.5 131.232459 38.5 131.232459L 49.5 132.732459C 49.5 132.732459 60 131.532559 68 134.732459C 78 138.732259 82.8252 145.877859 87 156.732359C 92 169.732359 93.5 207.732359 95.5 219.732359C 97.5 231.732359 105.5 243.232359 118.5 239.732359C 128.9 236.932359 140.8333 217.232359 145.5 207.732359C 159.8333 178.399059 190.8789 114.438359 203.5 95.232359C 215 77.732359 222.5 70.732459 227 68.732459L 194.5 63.732459C 167.1667 60.232459 111.5 51.732459 100 55.732559C 90.2869 59.111059 86.5 63.232459 77 74.732559ZM 10 10L 10 82L 71.5 82"/>
          </g>
        </g>
      </g>
      <g id="g-root-cp_3_g-3_mgq1odqesxl4-stroke" data-item-order="-743886" transform="translate(506, 350.00048828125)">
        <g id="cp_3_g-3_mgq1odqesxl4-stroke" fill="none" stroke-linecap="round" stroke-linejoin="round" stroke-miterlimit="4" stroke="#92bd39" stroke-width="2">
          <g>
            <path d="M 170.780173 137.568257C 166.797773 144.205757 159.002273 160.298857 154.985373 168.446357C 154.753073 168.917657 155.049973 169.472157 155.569473 169.550657L 216.981073 178.738657C 217.818273 178.865157 218.346673 177.580357 217.736273 176.993557C 213.776173 173.186557 211.280173 168.980557 209.999973 164.499957C 208.439873 159.039557 207.499973 149.641957 207.499973 142.999957C 207.499973 133.141457 206.847373 124.263257 203.999973 117.999957C 201.152673 111.736757 191.898673 110.543157 185.999973 115.999957C 180.101273 121.456757 175.460573 129.767657 170.780173 137.568257Z"/>
          </g>
        </g>
        <g id="cp_3_g-3_mgq1odqesxl4-stroke" fill="none" stroke-linecap="round" stroke-linejoin="round" stroke-miterlimit="4" stroke="#92bd39" stroke-width="2">
          <g>
            <path d="M 66.0322 107.43654C 58.6217 116.40734 36.5 152.23244 36.5 152.23244C 36.5 152.23244 47.5 147.10994 58.5 151.50984C 66.3006 154.62994 72.7434 161.76524 76 170.23244C 79.9003 180.37314 78.9032 211.18434 80.4633 220.54504C 82.0234 229.90574 88.2639 238.87634 98.4047 236.14614C 106.5173 233.96204 115.826 218.59484 119.4663 211.18424C 130.6471 188.30254 154.8645 138.40944 164.7097 123.42764C 173.6804 109.77664 179.5308 104.31624 183.0411 102.75614L 157.6892 98.85584C 136.3675 96.12564 92.9443 89.49514 83.9736 92.61544C 76.3968 95.25094 73.4428 98.46574 66.0322 107.43654ZM 10 10L 10 106L 67 106"/>
          </g>
        </g>
      </g>
      <g id="g-root-cp_4_g-4_8vwf0dqeuakr-stroke" data-item-order="-743880" transform="translate(682.3754272460938, 266.0009765625)">
        <g id="cp_4_g-4_8vwf0dqeuakr-stroke" fill="none" stroke-linecap="round" stroke-linejoin="round" stroke-miterlimit="4" stroke="#1eabda" stroke-width="2">
          <g>
            <path d="M 113.009566 173.156071C 110.021266 178.136571 104.171666 190.212371 101.157566 196.326071C 100.983266 196.679671 101.206066 197.095771 101.595866 197.154671L 147.677366 204.049071C 148.305566 204.144071 148.702066 203.179971 148.244066 202.739671C 145.272466 199.882871 144.114866 196.126771 143.154266 192.764671C 141.983566 188.667371 141.690866 181.359271 141.690866 176.375371C 141.690866 169.936671 141.690866 164.083271 137.300866 159.400671C 134.081566 155.010671 128.228266 155.595871 124.130866 158.815271C 121.130366 161.172871 116.521566 167.302671 113.009566 173.156071Z"/>
          </g>
        </g>
        <g id="cp_4_g-4_8vwf0dqeuakr-stroke" fill="none" stroke-linecap="round" stroke-linejoin="round" stroke-miterlimit="4" stroke="#1eabda" stroke-width="2">
          <g>
            <path d="M 32.160093 152.047031C 26.599493 158.778431 9.999993 185.660531 9.999993 185.660531C 9.999993 185.660531 18.254093 181.816731 26.508093 185.118331C 32.361493 187.459531 37.195993 192.813631 39.639593 199.167231C 42.566293 206.776531 41.818093 229.896331 42.988793 236.920331C 44.159493 243.944331 48.842093 250.675631 56.451493 248.626931C 62.538893 246.988031 69.523893 235.456931 72.255493 229.896331C 80.645293 212.726531 98.817293 175.288131 106.204793 164.046231C 112.936193 153.802931 117.326193 149.705631 119.960193 148.534931L 100.936793 145.608231C 84.937693 143.559631 52.354093 138.584231 45.622793 140.925631C 39.937393 142.903231 37.720793 145.315631 32.160093 152.047031ZM 25.624573 10L 25.624573 161"/>
          </g>
        </g>
      </g>
      <g id="g-root-cp_1_g-1_4g2wvxqeubd2-stroke" data-item-order="-743874" transform="translate(108.76701354980469, 518.00048828125)">
        <g id="cp_1_g-1_4g2wvxqeubd2-stroke" fill="none" stroke-linecap="round" stroke-linejoin="round" stroke-miterlimit="4" stroke="#4e88e7" stroke-width="2">
          <g>
            <path d="M 56.233385 114.732374C 37.686185 149.459074 17.938685 204.235274 10.049385 228.266874C 9.872285 228.806274 10.187885 229.361174 10.734085 229.515874L 125.276185 261.961374C 125.805685 262.111274 126.354985 261.811274 126.508885 261.282974C 128.840885 253.278674 134.125085 235.905174 138.733385 223.232474C 144.733385 206.732474 171.733385 146.732474 178.733385 133.232474C 185.733385 119.732474 201.233385 92.232474 219.233385 71.732474C 233.633385 55.332474 248.233385 49.899074 254.733385 48.732374L 147.233385 34.232574C 147.233385 34.232574 131.233385 32.232374 121.733385 35.732574C 112.233385 39.232674 102.233385 47.529274 95.733385 54.232374C 90.399985 59.732374 75.033385 79.532374 56.233385 114.732374Z"/>
          </g>
        </g>
        <g id="cp_1_g-1_4g2wvxqeubd2-stroke" fill="none" stroke-linecap="round" stroke-linejoin="round" stroke-miterlimit="4" stroke="#4e88e7" stroke-width="2">
          <g>
            <path d="M 222.233348 90.732403C 213.013448 102.863803 197.458048 129.167703 189.733148 142.732403C 189.395748 143.324703 189.738148 144.071503 190.406448 144.205703L 298.280148 165.833703C 299.458848 166.070403 300.781548 163.020103 299.949648 162.152103C 295.865248 157.890703 292.219548 151.624103 289.733048 143.232403C 285.733048 129.732603 286.233048 114.732403 284.233048 96.732203C 282.851848 84.301303 279.233048 73.232403 273.733048 67.732403C 267.650248 61.649703 258.615948 61.401503 249.733148 64.732403C 241.733148 67.732303 232.537648 77.174303 222.233348 90.732403ZM 23.233383 10L 23.233383 191"/>
          </g>
        </g>
      </g>
      <g id="g-root-cp_5_g-5_1q6cxktqeu9l5-stroke" data-item-order="-743868" transform="translate(794.5, 182.0009765625)">
        <g id="cp_5_g-5_1q6cxktqeu9l5-stroke" fill="none" stroke-linecap="round" stroke-linejoin="round" stroke-miterlimit="4" stroke="#e0cb15" stroke-width="2">
          <g>
            <path d="M 38.9857 251.514174C 38.9857 234.961074 28.8279 224.738474 14.2724 229.098074L 25.9553 206.200374L 10.4408 204.084774C 9.982 204.022174 9.8382 203.429174 10.2173 203.163374L 79.9699 158.943374C 80.2141 158.772174 80.5525 158.846574 80.7023 159.104374L 114.022 217.262774C 114.2351 217.629474 113.9327 218.080874 113.5124 218.023074L 94.1808 215.364974C 92.3139 220.541274 88.682 229.977374 86.0344 236.494474C 78.8985 254.059974 71.6575 266.392874 65.5 274.499974C 53.0494 290.892874 38.9857 282.226074 38.9857 251.514174ZM 105.500192 10.000001L 105.499992 178.500001L 91.999992 178.500001"/>
          </g>
        </g>
      </g>
      <g id="g-root-tx__1cwrugtqeua6e-stroke" data-item-order="0" transform="translate(914, 110)"/>
      <g id="g-root-tx__zlbc3hqeubrb-stroke" data-item-order="0" transform="translate(806, 146)"/>
      <g id="g-root-tx__v48vstqeuadg-stroke" data-item-order="0" transform="translate(602, 182)"/>
      <g id="g-root-tx__hssdfhqeubyd-stroke" data-item-order="0" transform="translate(614, 218)"/>
      <g id="g-root-tx__mahat9qeua6g-stroke" data-item-order="0" transform="translate(482, 254)"/>
      <g id="g-root-tx__18lxp26pkzqit-stroke" data-item-order="0" transform="translate(398, 290)"/>
      <g id="g-root-tx__1q9hb0dqeuarm-stroke" data-item-order="0" transform="translate(266, 350)"/>
      <g id="g-root-tx__1cyn9q5qeu96r-stroke" data-item-order="0" transform="translate(242, 386)"/>
      <g id="g-root-tx__qrjr3xqeubkc-stroke" data-item-order="0" transform="translate(110, 434)"/>
      <g id="g-root-tx__mccq2lqeu96t-stroke" data-item-order="0" transform="translate(26, 470)"/>
    </g>
  </g>
</svg>